<mxfile host="app.diagrams.net" agent="Mozilla/5.0 (Windows NT 10.0; Win64; x64) AppleWebKit/537.36 (KHTML, like Gecko) Chrome/119.0.0.0 Safari/537.36" version="24.7.17">
  <diagram name="第 1 页" id="bu1UEFJPgkt4MvXkpYjn">
    <mxGraphModel dx="989" dy="532" grid="1" gridSize="10" guides="1" tooltips="1" connect="1" arrows="1" fold="1" page="1" pageScale="1" pageWidth="827" pageHeight="1169" math="0" shadow="0">
      <root>
        <mxCell id="0" />
        <mxCell id="1" parent="0" />
        <mxCell id="XMR4H0Z16khm0h809xH--1" value="布局表" style="rounded=0;whiteSpace=wrap;html=1;" vertex="1" parent="1">
          <mxGeometry x="220" y="160" width="120" height="60" as="geometry" />
        </mxCell>
        <mxCell id="XMR4H0Z16khm0h809xH--2" value="组件表" style="rounded=0;whiteSpace=wrap;html=1;" vertex="1" parent="1">
          <mxGeometry x="220" y="290" width="120" height="60" as="geometry" />
        </mxCell>
        <mxCell id="XMR4H0Z16khm0h809xH--3" value="模块表？？" style="rounded=0;whiteSpace=wrap;html=1;" vertex="1" parent="1">
          <mxGeometry x="220" y="420" width="120" height="60" as="geometry" />
        </mxCell>
        <mxCell id="XMR4H0Z16khm0h809xH--4" value="应用表" style="rounded=0;whiteSpace=wrap;html=1;" vertex="1" parent="1">
          <mxGeometry x="40" y="70" width="120" height="60" as="geometry" />
        </mxCell>
      </root>
    </mxGraphModel>
  </diagram>
</mxfile>
